# xmcd CD database file
#
# Track frame offsets:
#	150
#	22372
#	40208
#	52381
#	68353
#	79760
#	89660
#	106923
#	123194
#	145237
#	156172
#	171566
#	199217
#	211751
#
# Disc length: 3249 seconds
#
# Revision: 5
# Processed by: cddbd v1.5.1PL2 Copyright (c) Steve Scherf et al.
# Submitted via: CDex 1.70beta2
#
DISCID=cc0caf0e
DTITLE=Various Artist - Electric Blues
DYEAR=1999
DGENRE=Blues
TTITLE0=B.B. King - The Thrill Is Gone
TTITLE1=John Mayall - Mama Talk To Your Daughter
TTITLE2=Canned Heat - Got My Mojo Working
TTITLE3=Mike Bloomfield - Don't Lie To Me
TTITLE4=John Lee Hooker - Boom Boom
TTITLE5=Buddy Guy - The First Time I Met The Blues
TTITLE6=Charles Brown - Driftin' Blues
TTITLE7=B.B. King - It's My Own Fault Baby
TTITLE8=Santana - Travellin' Blues
TTITLE9=Jimmy Reed - Baby What You Want Me To Do
TTITLE10=Gate Mouth Moore - Somebody Got To Go
TTITLE11=Joe Turner - Stormy Monday Blues
TTITLE12=John Lee Hooker - Crawlin' Black Spider
TTITLE13=Santana - Every Day I Have The Blues
EXTD=1999 St. Clair Entertainment Group YEAR: 1999
EXTT0=
EXTT1=
EXTT2=
EXTT3=
EXTT4=
EXTT5=
EXTT6=
EXTT7=
EXTT8=
EXTT9=
EXTT10=
EXTT11=
EXTT12=
EXTT13=
PLAYORDER=
